PathFileType	3	(X/Y/Z)	D:\minhoCalibration\240510\subject2_KPNP\preferred\preferred13.trc
DataRate	CameraRate	NumFrames	NumMarkers	Units	OrigDataRate	OrigDataStartFrame	OrigNumFrames
200.0	200.0	12	10	mm	200.0	459	213	
Frame#	Time	Left_Ankle_Outer1			Left_Ankle_Inner1			Left_Knee_Outer1			Left_Knee_Inner1			Left_Wrist1			Right_Wrist1			Right_Knee_Inner1			Right_Knee_Outer1			Right_Ankle_Inner1			Right_Ankle_Outer1			
		X1	Y1	Z1	X2	Y2	Z2	X3	Y3	Z3	X4	Y4	Z4	X5	Y5	Z5	X6	Y6	Z6	X7	Y7	Z7	X8	Y8	Z8	X9	Y9	Z9	X10	Y10	Z10	
459	2.285	-670.33319	93.507607	-779.74237	-685.73816	98.083656	-725.15955	-473.67572	505.00983	-778.90656	-526.43323	491.11002	-696.34399	-497.69534	976.96295	-856.87872	-772.15894	1063.9369	-665.198	-862.8999	619.74713	-414.01941	-939.86865	688.4176	-427.40549	-901.966	473.67685	-807.65881	-988.56958	523.47571	-818.38348
460	2.29	-670.61304	94.311607	-779.69763	-684.75122	98.378967	-726.4574	-476.42007	505.56726	-782.47961	-527.13458	492.36298	-699.16467	-497.8884	978.34674	-861.35236	-763.60248	1069.321	-658.95105	-848.9469	631.3114	-395.40982	-925.40002	701.02466	-407.44653	-898.45496	491.16949	-790.28021	-984.91077	542.09088	-798.73193
461	2.295	-670.92004	95.144089	-779.51245	-684.98688	99.933289	-724.84283	-478.26566	506.55103	-786.46844	-527.42212	493.70236	-701.49799	-499.15091	979.48291	-865.42938	-755.04041	1074.6508	-653.18268	-833.57855	643.56525	-377.81372	-910.34821	713.27734	-388.80118	-895.1701	509.27835	-772.96545	-980.86249	560.66766	-778.39331
462	2.3	-671.35675	96.062531	-779.15381	-684.53699	101.81698	-723.19843	-479.39011	508.10254	-790.53827	-527.39789	495.26245	-704.33636	-499.83081	980.41565	-870.30133	-746.51648	1079.9673	-647.87671	-818.28009	656.11945	-359.62869	-894.5011	727.08606	-369.07416	-891.71338	527.49683	-755.51569	-976.97766	579.8371	-757.9613
463	2.305	-671.81006	97.135437	-778.5744	-683.98645	102.0714	-723.67236	-481.43338	508.60132	-794.13983	-526.53839	496.45544	-706.37262	-501.61499	981.0354	-874.74445	-737.98022	1085.2031	-642.89935	-802.1601	669.30939	-342.30063	-877.56848	741.18616	-350.16895	-888.71667	545.41089	-737.49945	-973.40936	598.91168	-736.81848
464	2.31	-672.13672	97.983101	-777.67102	-683.01166	102.13845	-724.53528	-482.60913	509.54449	-798.06989	-525.34637	497.68799	-708.87842	-504.31311	981.35797	-879.04608	-729.55957	1090.2808	-638.44415	-785.16156	682.8869	-325.56384	-861.06879	756.84338	-328.67114	-886.09302	563.24591	-719.03101	-969.87488	617.50153	-714.84009
465	2.315	-672.52942	98.694519	-776.11218	-682.97809	103.8511	-721.99695	-483.63174	510.58835	-801.89508	-523.52716	498.76889	-711.43286	-507.47	981.38275	-883.39526	-721.18195	1095.1273	-634.34271	-767.51404	696.71161	-309.27408	-841.1676	770.48383	-314.70239	-883.76923	580.74231	-700.20392	-967.31006	637.0705	-691.97211
466	2.32	-673.02167	99.599342	-774.909	-681.55115	105.41429	-720.84869	-484.36816	511.56204	-805.85864	-521.03992	499.8588	-713.88983	-511.17761	981.16644	-887.60791	-712.83954	1099.8052	-630.55115	-748.91156	711.09076	-293.86679	-821.85126	787.86804	-294.24609	-881.60425	598.3299	-680.66364	-963.13916	655.00159	-669.69348
467	2.325	-673.63794	100.7297	-773.80634	-681.30579	106.84245	-718.4859	-484.69412	512.76257	-809.93665	-518.11896	500.37241	-716.73285	-515.63824	980.58337	-891.60767	-704.36127	1104.2327	-626.98651	-729.07166	725.69147	-279.70502	-800.47571	804.01611	-278.18414	-880.14783	615.51831	-660.30798	-959.83417	675.6026	-644.1424
468	2.33	-674.2818	101.55217	-771.77936	-680.51855	108.30695	-716.58142	-485.16382	513.18854	-814.03326	-514.42584	500.71835	-719.38196	-521.13635	979.46515	-895.30243	-696.19604	1108.65	-623.74744	-708.20886	740.52271	-266.50394	-777.46149	819.43335	-265.00574	-878.32599	632.70966	-640.1297	-956.81708	692.19995	-621.68732
469	2.335	-674.88684	102.62296	-769.94287	-679.73718	110.87877	-713.01636	-485.18091	513.7229	-818.27014	-510.33414	500.87656	-722.25391	-527.05341	978.14282	-898.83551	-687.97192	1112.8971	-620.74469	-686.37354	755.34924	-254.61182	-753.25891	836.90234	-250.24742	-878.55133	649.12927	-619.3479	-952.85754	711.28491	-597.17981
470	2.34	-675.35748	103.94442	-768.01917	-678.25641	110.65092	-714.08093	-484.6004	514.46478	-822.71661	-506.11716	500.66138	-725.23309	-533.16223	977.18433	-901.74603	-679.81573	1117.3605	-618.0282	-663.8905	770.42627	-243.97673	-728.09344	854.68604	-236.8409	-877.47559	665.55725	-595.91785	-948.90271	729.51984	-571.58215
